<?xml version="1.0" encoding="UTF-8" standalone="no" ?>
<!DOCTYPE svg PUBLIC "-//W3C//DTD SVG 1.1//EN" "http://www.w3.org/Graphics/SVG/1.1/DTD/svg11.dtd">
<svg xmlns="http://www.w3.org/2000/svg" xmlns:xlink="http://www.w3.org/1999/xlink" version="1.1" width="60" height="50" viewBox="0 0 60 50" xml:space="preserve">
<desc>Created with Fabric.js 5.3.0</desc>
<defs>
</defs>
<g transform="matrix(0.7875054 0 0 0.7875057672 30 25.1124202838)" id="yg8MKwwMbuGn0uILGqtrz"  >
<path style="stroke: rgb(11,33,86); stroke-width: 0; stroke-dasharray: none; stroke-linecap: butt; stroke-dashoffset: 0; stroke-linejoin: miter; stroke-miterlimit: 4; fill: rgb(0,0,0); fill-rule: nonzero; opacity: 1;" vector-effect="non-scaling-stroke"  transform=" translate(-36.656895, -31.7458)" d="M 54.98534 0 L 73.31379 31.7458 L 54.985339999999994 63.4916 L 18.328449999999997 63.4916 L -3.552713678800501e-15 31.7458 L 18.328449999999997 0 z" stroke-linecap="round" />
</g>
<g transform="matrix(0.9012299199 0 0 0.830654765 30 19.0983127374)" id="3ak4Ex_jC08zu3gQQS8WU"  >
<path style="stroke: rgb(175,92,10); stroke-width: 0; stroke-dasharray: none; stroke-linecap: butt; stroke-dashoffset: 0; stroke-linejoin: miter; stroke-miterlimit: 4; fill: rgb(255,255,255); fill-rule: nonzero; opacity: 1;" vector-effect="non-scaling-stroke"  transform=" translate(-17.667855, -3.40006)" d="M 3.40007 0 L 31.93565 0 C 33.813449999999996 0 35.33571 1.52226 35.33571 3.40006 L 35.335699999999996 3.40006 C 35.335699999999996 5.2778599999999996 33.81343999999999 6.80012 31.935639999999996 6.80012 L 3.4000599999999963 6.80012 C 1.5222599999999964 6.80012 -3.552713678800501e-15 5.2778599999999996 -3.552713678800501e-15 3.40006 L 0.000009999999996447287 3.40006 C 0.000009999999996447287 1.52226 1.5222699999999965 0 3.4000699999999964 0 z" stroke-linecap="round" />
</g>
<g transform="matrix(0.9012299199 0 0 0.830654765 39.6273769989 26.7017041868)" id="BME6_94zOy0MH0mz_9x8e"  >
<path style="stroke: rgb(175,92,10); stroke-width: 0; stroke-dasharray: none; stroke-linecap: butt; stroke-dashoffset: 0; stroke-linejoin: miter; stroke-miterlimit: 4; fill: rgb(255,255,255); fill-rule: nonzero; opacity: 1;" vector-effect="non-scaling-stroke"  transform=" translate(-6.98536, -9.609575)" d="M 6.34516 1.7006 L 13.51464 14.11849 C 14.45354 15.74471 13.89635 17.82416 12.27013 18.76306 L 12.27013 18.76306 C 10.64391 19.70196 8.56446 19.14477 7.62556 17.518549999999998 L 0.45608000000000004 5.100659999999998 C -0.4828199999999999 3.4744399999999978 0.07437000000000005 1.3949899999999977 1.70059 0.4560899999999979 L 1.70059 0.4560899999999979 C 3.32681 -0.48281000000000207 5.40626 0.07437999999999789 6.34516 1.700599999999998 z" stroke-linecap="round" />
</g>
<g transform="matrix(-0.9012299199 0 0 0.830654765 20.3726230011 26.7017041868)" id="o-vnFCtZM8ZU4MDOkZnpN"  >
<path style="stroke: rgb(175,92,10); stroke-width: 0; stroke-dasharray: none; stroke-linecap: butt; stroke-dashoffset: 0; stroke-linejoin: miter; stroke-miterlimit: 4; fill: rgb(255,255,255); fill-rule: nonzero; opacity: 1;" vector-effect="non-scaling-stroke"  transform=" translate(-6.98536, -9.609575)" d="M 6.34516 1.7006 L 13.51464 14.11849 C 14.45354 15.74471 13.89635 17.82416 12.27013 18.76306 L 12.27013 18.76306 C 10.64391 19.70196 8.56446 19.14477 7.62556 17.518549999999998 L 0.45608000000000004 5.100659999999998 C -0.4828199999999999 3.4744399999999978 0.07437000000000005 1.3949899999999977 1.70059 0.4560899999999979 L 1.70059 0.4560899999999979 C 3.32681 -0.48281000000000207 5.40626 0.07437999999999789 6.34516 1.700599999999998 z" stroke-linecap="round" />
</g>
</svg>